<svg width="416" height="161" viewBox="0 0 416 161" fill="none" xmlns="http://www.w3.org/2000/svg">
<path d="M4.48347 84.3781C4.89515 83.0081 4.11821 81.5637 2.74815 81.152C1.37808 80.7403 -0.0663031 81.5173 -0.477974 82.8873L-7.93193 107.695L-107.161 77.8787C-114.011 75.8204 -121.233 79.705 -123.291 86.5554C-123.437 86.9529 -123.559 87.3588 -123.657 87.7709C-124.795 94.5015 -120.668 101.005 -114.094 102.842L-104.692 105.668L-100.965 93.2639L-76.1577 100.718L-79.8847 113.121L-15.3859 132.502C-12.6458 133.325 -9.757 131.771 -8.93365 129.031L-1.4797 104.224" fill="#3B97D3"/>
<path d="M7.465 74.4552L-0.309479 100.329L-27.6755 49.4533L-7.32619 38.5282C-5.5307 51.5667 -0.439913 63.9319 7.465 74.4552Z" fill="#95A5A5"/>
<path d="M-112.603 97.8809C-116.609 96.8039 -119.169 92.8925 -118.554 88.7903C-118.457 88.4678 -118.39 88.2445 -118.33 88.046C-117.095 83.9358 -112.762 81.605 -108.652 82.84L-11.9036 111.91C-14.8486 116.313 -16.4064 121.498 -16.376 126.795L-112.603 97.8809Z" fill="#F5EFCA"/>
<path d="M-0.309479 100.329L-0.734451 101.743C-1.55439 104.472 -5.20313 108.514 -7.93193 107.695L-8.13054 107.635L-36.7807 54.3717L-90.0935 83.007L-104.085 78.803L-46.2653 47.6811L-51.1838 38.576L-56.0699 29.4536L-79.5142 -14.1313L-75.3027 -28.1473L-37.1255 42.8272L-18.8657 33.0053L-49.4074 -23.7744L-35.3666 -19.5554L-9.75318 28.062L-7.26907 26.7258C-7.74295 30.6446 -7.76204 34.605 -7.32619 38.5282L-27.6755 49.4533L-0.309479 100.329Z" fill="#F3D55B"/>
<path d="M-5.66053 19.1221C-6.40917 21.6159 -6.9497 24.1675 -7.27654 26.7506L-9.76065 28.0868L-35.3666 -19.5554L29.8268 0.0335312C14.756 -4.49485 -1.13215 4.05141 -5.66053 19.1221Z" fill="#F29C1F"/>
<path d="M-18.8831 32.973L-37.1429 42.795L-75.3027 -28.1473L-74.3635 -31.273L-49.4074 -23.7744L-18.8831 32.973Z" fill="#4FBA6F"/>
<path d="M-74.3635 -31.273L-107.161 77.8787C-114.011 75.8204 -121.233 79.705 -123.291 86.5554L-90.4941 -22.5964C-88.4357 -29.4467 -81.2138 -33.3314 -74.3635 -31.273Z" fill="#2980BA"/>
<path d="M-0.734451 101.743L-8.93365 129.031L-22.3299 125.006C-22.8833 119.646 -21.2732 114.288 -17.8575 110.121L-9.42302 112.656C-6.68288 113.479 -3.79411 111.925 -2.97077 109.185L-0.734451 101.743Z" fill="#285680"/>
<path d="M-0.734451 101.743L-1.4797 104.224C-1.38621 103.899 -1.35763 103.558 -1.3951 103.221C-1.12138 102.754 -0.899773 102.259 -0.734451 101.743Z" fill="#285680"/>
<path d="M-8.13054 107.635L-90.0935 83.007L-36.7807 54.3717L-8.13054 107.635Z" fill="#95A5A5"/>
<path d="M-46.2653 47.6811L-104.085 78.803L-107.161 77.8787L-99.6549 52.8977L-56.0699 29.4536L-51.1838 38.576L-46.2653 47.6811Z" fill="#285680"/>
<path d="M-65.6143 11.7098L-91.4555 25.6097L-79.5142 -14.1313L-65.6143 11.7098Z" fill="#285680"/>
<path d="M-56.0699 29.4536L-99.6549 52.8977L-91.4555 25.6097L-65.6143 11.7098L-56.0699 29.4536Z" fill="#4482C3"/>
<path d="M29.8268 0.0335312C14.756 -4.49485 -1.13215 4.05141 -5.66053 19.1221C-6.40917 21.6159 -6.9497 24.1675 -7.27654 26.7506C-7.75043 30.6694 -7.7697 34.6297 -7.33385 38.5528C-5.53209 51.5834 -0.438702 63.9398 7.465 74.4552C7.465 74.4552 40.4103 63.8257 48.9152 35.5207C51.0898 28.2835 50.3004 20.4788 46.7206 13.8237C43.1408 7.16852 37.064 2.20813 29.8268 0.0335312ZM17.9003 39.725C9.67995 37.2549 5.01836 28.5886 7.48839 20.3683C9.95841 12.1479 18.6247 7.48628 26.8451 9.9563C35.0655 12.4263 39.727 21.0926 37.257 29.313C36.0709 33.2606 33.3651 36.5753 29.7351 38.5279C26.105 40.4805 21.8479 40.9111 17.9003 39.725Z" fill="#E64C3C"/>
<path d="M17.9003 39.725C26.1207 42.195 34.787 37.5334 37.257 29.313C39.727 21.0926 35.0655 12.4263 26.8451 9.9563C18.6247 7.48628 9.95841 12.1479 7.48839 20.3683C5.01836 28.5886 9.67995 37.2549 17.9003 39.725Z" fill="#F5EFCA"/>
<path d="M17.155 42.2057C7.5645 39.324 2.12595 29.2133 5.00764 19.6229C7.88934 10.0324 18 4.59392 27.5905 7.47562C37.181 10.3573 42.6195 20.468 39.7378 30.0584C38.354 34.6639 35.1973 38.5311 30.9622 40.8091C26.7271 43.0872 21.7605 43.5895 17.155 42.2057ZM26.0997 12.4371C19.2494 10.3787 12.0275 14.2634 9.9691 21.1137C7.91075 27.964 11.7954 35.1859 18.6458 37.2443C25.4961 39.3026 32.718 35.418 34.7764 28.5676C35.7648 25.278 35.406 21.7304 33.7788 18.7054C32.1516 15.6803 29.3893 13.4255 26.0997 12.4371Z" fill="#C03A2B"/>
<path d="M-66.9803 106.18L-109.153 93.5083C-110.523 93.0967 -111.3 91.6523 -110.888 90.2822C-110.476 88.9122 -109.032 88.1352 -107.662 88.5469L-65.4895 101.219C-64.1194 101.63 -63.3425 103.075 -63.7541 104.445C-64.1658 105.815 -65.6102 106.592 -66.9803 106.18Z" fill="#E4C05C"/>
<path d="M-75.4123 98.2371L-82.1208 120.564C-82.3888 121.455 -83.1144 122.134 -84.0214 122.342C-84.9285 122.551 -85.8777 122.256 -86.5078 121.571L-92.6157 114.895C-93.2501 114.221 -94.1957 113.937 -95.0964 114.149L-103.873 116.354C-104.765 116.554 -105.697 116.268 -106.324 115.602C-106.952 114.936 -107.181 113.989 -106.928 113.11L-100.219 90.7831L-75.4123 98.2371Z" fill="#E64C3C"/>
<path d="M-0.734451 101.743L-1.4797 104.224C-1.38621 103.899 -1.35763 103.558 -1.3951 103.221C-1.12138 102.754 -0.899773 102.259 -0.734451 101.743Z" fill="#3B97D3"/>
<path d="M524.818 83.8936C526.04 86.0847 527.249 88.3072 528.444 90.5652C529.34 89.2504 530.174 87.9191 530.947 86.5668C531.463 85.6606 530.877 84.5169 529.86 84.4285C528.127 84.2816 526.445 84.0986 524.818 83.8936Z" fill="#47821C"/>
<path d="M354.29 22.8945C344.025 19.6304 339.172 14.9707 326.233 6.98653C324.074 5.6549 322.883 3.13597 323.226 0.568314C326.305 -22.3937 331.812 -40.8455 336.155 -52.6626C339.647 -62.1655 347.839 -69.0141 357.585 -70.7602C371.85 -73.3151 385.612 -73.531 398.434 -72.2898C400.662 -72.0741 402.591 -70.6484 403.54 -68.5745C410.343 -53.7057 418.071 -41.4576 418.829 -24.1251C418.897 -22.5698 420.988 -22.2255 421.528 -23.6837C424.492 -31.6748 429.051 -46.2265 431.322 -64.8205C431.433 -65.7307 432.33 -66.3149 433.172 -66.0143C443.123 -62.4654 457.194 -56.2012 463.912 -52.821C464.306 -52.6232 464.581 -52.2506 464.658 -51.8082C468.048 -32.5468 471.626 -5.17247 469.703 16.9565C469.564 18.5552 471.692 19.1371 472.358 17.6816C477.606 6.22037 486.952 -15.3945 491.172 -32.5862C491.437 -33.6636 492.734 -34.0496 493.505 -33.2751C496.174 -30.5907 500.73 -25.9213 502.363 -24.2571C502.572 -24.0449 502.707 -23.774 502.752 -23.475C505.207 -7.11225 506.424 15.7662 499.162 34.762C498.673 36.0387 500.01 37.2191 501.164 36.5246C507.309 32.8263 519.814 23.9799 525.906 10.254C526.384 9.17796 527.854 9.10637 528.403 10.1399C535.475 23.4495 539.272 36.9676 539.294 53.1515C539.295 53.5973 539.09 54.0155 538.744 54.2873C528.569 62.275 516.101 73.7132 499.885 75.1535C498.382 75.2874 498.088 77.4142 499.507 77.929C505.827 80.2216 516.325 83.2663 529.881 84.4315C530.898 84.5191 531.488 85.6632 530.97 86.5687C526.627 94.1583 520.399 101.197 511.884 107.489C502.819 114.978 484.309 114.993 480.322 96.5472C479.427 92.4263 480.389 84.2837 478.576 80.3963C474.574 71.8141 470.214 67.4798 465.634 61.1658C457.446 50.451 443.943 47.4315 435.451 54.4111C426.988 61.4343 426.702 75.8479 434.89 86.5647C439.801 92.669 442.836 98.0189 449.981 104.021C453.213 106.736 461.234 106.465 464.892 108.303C468.083 109.902 470.741 112.206 472.797 114.898C479.155 123.218 475.2 137.795 467.834 143.881C460.208 150.906 452.408 155.567 444.521 158.282C443.425 158.659 442.382 157.59 442.756 156.467C448.594 138.942 447.365 128.123 445.96 122.87C445.602 121.531 443.769 121.476 443.304 122.785C437.287 139.732 429.607 151.304 419.431 160.38C419.095 160.679 418.644 160.794 418.212 160.693C412.937 159.452 401.414 156.636 396.785 154.66C387.881 150.86 379.9 145.167 372.85 138.564C372.011 137.778 372.417 136.353 373.533 136.113C387.622 133.089 398.658 122.619 403.602 117.169C404.546 116.13 403.605 114.474 402.26 114.805C384.12 119.277 371.494 124.248 353.826 118.546C353.507 118.444 353.237 118.226 353.064 117.933C350.854 114.187 337.66 91.9774 332.708 83.5452C332.059 82.4403 333.064 81.0922 334.28 81.4273C356.752 87.6107 379.939 80.2934 390.216 76.2039C391.608 75.6498 391.31 73.5504 389.824 73.4416C368.899 71.9146 347.133 67.9827 329.288 60.0452C328.881 59.8638 328.586 59.4962 328.49 59.0522C326.841 51.4765 324.151 35.7962 323.077 24.9159C322.987 24.0052 323.746 23.2395 324.633 23.3396C337.097 24.7493 346.842 25.41 353.798 25.6936C355.429 25.7611 355.844 23.3892 354.29 22.8945Z" fill="#4E901E"/>
<path d="M344.476 -64.5792C354.75 -51.134 424.928 40.7086 435.42 54.4388C435.826 54.1923 438.68 51.5211 443.652 50.8349C443.657 50.8309 443.666 50.832 443.675 50.833C451.807 49.6093 460.359 54.2479 465.637 61.169C471.543 68.9965 475.036 72.8184 478.576 80.3986C479.625 82.6344 479.755 87.0128 479.743 87.1107C480.006 92.5417 479.198 98.9206 484.715 106.049C491.073 114.367 504.517 113.578 511.884 107.488C518.887 102.317 524.338 96.6418 528.468 90.5682C529.364 89.2534 530.198 87.9221 530.97 86.5697C531.487 85.6636 530.901 84.5199 529.884 84.4315C528.152 84.2847 526.469 84.1011 524.843 83.8966C513.712 82.5019 505.019 79.9314 499.509 77.9301C498.097 77.4094 498.374 75.3023 499.885 75.1535C506.009 74.6093 511.552 72.6641 516.689 69.9792C524.85 65.7237 531.975 59.6061 538.744 54.2914L538.744 54.2873C539.093 54.0149 539.296 53.5993 539.297 53.1519C539.281 37.1211 535.482 23.4314 528.401 10.1402C527.857 9.10361 526.385 9.17767 525.908 10.251C519.812 23.9788 507.309 32.824 501.166 36.5222C500.01 37.2151 498.672 36.0364 499.164 34.7591C505.933 17.0521 505.567 -4.80474 502.755 -23.4724L502.751 -23.4773C502.672 -24.0177 503.193 -23.5295 493.504 -33.277C492.933 -33.8456 492.043 -33.8172 491.476 -33.1872C490.395 -31.9219 489.352 -20.0212 473.827 14.4473C473.351 15.5024 472.86 16.584 472.357 17.6824C471.691 19.1352 469.563 18.5516 469.705 16.9549C469.886 14.8914 470.014 12.7804 470.101 10.6361C470.963 -10.2081 467.732 -34.3463 464.659 -51.8085C464.582 -52.2508 464.307 -52.6226 463.912 -52.8219C455.608 -57.0032 441.503 -63.0318 433.171 -66.0135C432.328 -66.315 431.435 -65.7318 431.322 -64.8218C429.547 -50.2576 426.082 -36.1255 421.531 -23.6874C421.038 -22.4712 419.651 -22.5367 419.072 -23.3532L419.072 -23.3577C418.378 -24.2618 419.268 -28.2599 416.711 -37.7079C416.711 -37.7123 416.711 -37.7123 416.711 -37.7123C413.613 -48.9954 408.555 -57.6024 403.54 -68.5731C402.592 -70.6491 400.66 -72.0729 398.436 -72.29C383.333 -73.7989 366.461 -72.7126 357.508 -70.7438C352.645 -69.8594 348.169 -67.7046 344.476 -64.5792Z" fill="#5EAC24"/>
<path d="M323.181 1.13793C323.081 3.47625 324.217 5.74179 326.232 6.98859C339.172 14.9728 344.023 19.631 354.291 22.8945C355.861 23.3913 355.397 25.7763 353.802 25.6966C346.842 25.4131 337.1 24.7509 324.634 23.3431C323.751 23.2421 322.99 24.0082 323.077 24.918C324.154 35.7973 326.845 51.4767 328.49 59.0547C328.589 59.4996 328.884 59.8645 329.29 60.0462C345.386 67.2076 364.668 71.1059 383.643 72.9227C385.711 73.1218 387.772 73.2923 389.827 73.4436C391.313 73.5528 391.609 75.6525 390.219 76.2068C389.053 76.67 387.714 77.1788 386.232 77.7041C374.678 81.786 354.2 86.9121 334.281 81.43C333.075 81.0914 332.058 82.4392 332.712 83.5487C354.595 120.78 353.236 118.337 353.829 118.55C371.497 124.25 384.124 119.279 402.26 114.808C403.606 114.477 404.548 116.133 403.602 117.172C387.964 134.401 373.777 135.654 372.916 136.422C372.469 136.8 372.297 137.433 372.486 138C372.485 138.005 372.49 138.005 372.49 138.005C372.864 139.06 384.029 149.219 396.787 154.66C401.418 156.635 412.94 159.455 418.215 160.693C418.661 160.804 419.131 160.667 419.436 160.38C438.724 143.115 442.048 123.105 443.92 122.032C444.646 121.602 445.699 121.89 445.964 122.872C450.023 138.068 442.556 155.794 442.687 157.068C442.748 157.844 443.526 158.595 444.524 158.285C453.202 155.297 460.934 150.24 467.836 143.883C475.202 137.798 479.155 123.219 472.796 114.901C470.741 112.209 468.084 109.905 464.891 108.304C461.235 106.468 453.212 106.735 449.983 104.02C443.716 98.7901 440.348 93.5607 439.128 92.1111C438.995 91.7276 433.937 85.9318 431.925 81.832C431.925 81.832 431.926 81.8275 431.917 81.8216C426.922 71.9113 428.132 60.4595 435.418 54.4392C435.331 54.3247 345.54 -63.1832 344.474 -64.5791C340.797 -61.4704 337.895 -57.3913 336.155 -52.6626C327.637 -29.4774 323.228 -1.61692 323.181 1.13793Z" fill="#4E901E"/>
<path d="M493.504 -33.277C503.193 -23.5295 502.672 -24.0177 502.751 -23.4773L502.755 -23.4724C505.567 -4.80474 505.933 17.0521 499.164 34.7591C498.672 36.0364 500.01 37.2151 501.166 36.5222C507.309 32.824 519.812 23.9788 525.908 10.251C526.385 9.17767 527.857 9.10361 528.401 10.1402C535.482 23.4314 539.281 37.1211 539.297 53.1519C539.296 53.5993 539.093 54.0149 538.744 54.2873L538.744 54.2914C531.975 59.6061 524.85 65.7237 516.689 69.9792C503.273 48.2472 488.688 29.9058 473.827 14.4473C489.352 -20.0212 490.395 -31.9219 491.476 -33.1872C492.043 -33.8172 492.933 -33.8456 493.504 -33.277Z" fill="#6DC82A"/>
<path d="M433.171 -66.0135C441.504 -63.0323 455.608 -57.0022 463.912 -52.821C464.308 -52.6221 464.582 -52.2508 464.659 -51.8085C467.732 -34.3463 470.963 -10.2081 470.101 10.6361C454.29 -5.25778 438.255 -17.9544 423.059 -28.0664C426.916 -39.5794 429.765 -52.0465 431.322 -64.8205C431.435 -65.7314 432.329 -66.3154 433.171 -66.0135Z" fill="#6DC82A"/>
<path d="M357.508 -70.7438C366.461 -72.7126 383.333 -73.7989 398.436 -72.29C400.66 -72.0729 402.592 -70.6491 403.54 -68.5731C408.555 -57.6024 413.613 -48.9954 416.711 -37.7123C416.711 -37.7123 416.711 -37.7123 416.711 -37.7079C417.388 -35.2059 417.826 -33.081 418.112 -31.2908C375.373 -58.507 345.74 -62.9258 344.476 -64.5792C348.169 -67.7046 352.645 -69.8594 357.508 -70.7438Z" fill="#6DC82A"/>
<path d="M334.281 81.4288C354.2 86.9109 374.678 81.7849 386.231 77.7029C398.405 99.7313 414.268 121.594 434.919 141.37C431.425 147.363 426.498 154.058 419.436 160.379C419.131 160.666 418.661 160.803 418.215 160.692C412.94 159.454 401.418 156.635 396.787 154.659C384.029 149.218 372.864 139.059 372.49 138.004C372.49 138.004 372.485 138.004 372.486 137.999C372.296 137.432 372.469 136.799 372.916 136.421C373.777 135.653 387.964 134.399 403.602 117.171C404.548 116.132 403.606 114.476 402.26 114.807C384.124 119.278 371.497 124.249 353.829 118.549C353.236 118.337 354.537 120.68 332.712 83.5476C332.057 82.4375 333.075 81.0902 334.281 81.4288Z" fill="#5EAC24"/>
<path d="M336.156 -52.6635C337.896 -57.3926 340.799 -61.4708 344.476 -64.5792C344.276 -62.8449 344.152 -57.9639 344.687 -54.6973C349.116 -27.6555 356.149 20.9137 383.643 72.9227C364.668 71.1059 345.386 67.2076 329.29 60.0462C328.884 59.8645 328.589 59.4996 328.49 59.0547C326.845 51.4767 324.154 35.7973 323.077 24.918C322.99 24.0082 323.751 23.2421 324.634 23.3431C337.1 24.7509 346.842 25.4131 353.802 25.6966C355.397 25.7763 355.861 23.3913 354.291 22.8945C344.023 19.631 339.172 14.9728 326.232 6.98859C324.217 5.74179 323.081 3.47625 323.181 1.13793C323.227 -1.61648 327.637 -29.478 336.156 -52.6635Z" fill="#5EAC24"/>
<path d="M444.37 -61.6456C444.835 -54.5849 445.701 -37.0165 444.448 -17.7644C444.331 -15.9081 445.652 -14.3072 447.432 -14.1035C449.35 -13.884 451.077 -15.3534 451.206 -17.3409C452.312 -34.3156 451.802 -50.0303 451.331 -58.6672C449.073 -59.6579 446.717 -60.6688 444.37 -61.6456Z" fill="#47821C"/>
<path d="M369.611 4.31848C368.561 5.90948 368.969 8.06828 370.514 9.13557C385.377 19.3727 399.141 26.1132 411.422 29.1691C413.676 29.7243 417.231 26.8468 417.211 24.4371C417.004 -6.88221 398.931 -46.4926 383.321 -73.0222C380.732 -73.0247 378.111 -72.9563 375.465 -72.8161C379.912 -65.5377 408.736 -16.9688 410.361 21.6858C399.53 18.54 387.421 12.3894 374.314 3.36045C372.764 2.29706 370.661 2.72304 369.611 4.31848Z" fill="#47821C"/>
<path d="M332.978 -43.353C341.503 -35.7712 369.946 -11.0752 388.086 -2.39331C390.087 -1.42346 392.413 -2.72383 392.898 -4.82197C396.901 -22.2754 373.035 -57.3097 362.554 -71.5565C359.955 -71.1851 356.979 -70.7212 355.077 -70.1835C355.106 -70.1265 384.827 -31.0835 386.538 -11.0276C367.127 -22.0555 338.693 -47.4689 335.365 -50.4696C334.593 -48.2877 333.789 -45.9132 332.978 -43.353Z" fill="#47821C"/>
<path d="M535.832 28.1479C523.112 37.467 488.683 61.4272 467.782 63.9781C471.763 69.1928 471.865 69.299 472.515 70.1891C494.035 65.5644 523.956 45.2615 537.59 35.3845C537.12 32.9391 536.528 30.5263 535.832 28.1479Z" fill="#47821C"/>
<path d="M462.243 57.4278C464.696 59.7039 465.985 61.6791 466.763 62.6397C479.383 48.0031 494.228 13.8814 504.161 -11.2683C503.816 -15.5971 503.315 -19.7107 502.751 -23.4773C502.67 -24.0336 502.34 -24.267 502.021 -24.6099C492.743 -0.223791 475.844 41.1319 462.243 57.4278Z" fill="#47821C"/>
<path d="M328.353 -26.753C334.084 -20.8985 345.336 -9.94668 359.36 0.950195C359.86 1.33869 360.434 1.56257 361.018 1.62928C364.444 2.02129 366.191 -2.48134 363.47 -4.59393C347.055 -17.3493 334.221 -30.515 330.379 -34.5774C329.207 -30.3461 328.534 -27.4749 328.353 -26.753Z" fill="#47821C"/>
<path d="M421.449 114.639C420.293 116.157 420.553 118.336 422.027 119.512C423.498 120.68 425.624 120.405 426.783 118.886C433.608 109.908 438.466 101.876 441.283 94.9256C435.005 86.7102 436.654 88.8683 436.371 88.4984C434.287 95.5563 429.269 104.344 421.449 114.639Z" fill="#47821C"/>
<path d="M342.914 100.814C344.278 103.105 345.623 105.376 346.867 107.481C367.187 105.81 415.11 100.668 436.122 88.1758C435.335 87.0889 433.804 85.3694 432.258 82.4702C411.137 94.6465 360.003 99.5004 342.914 100.814Z" fill="#47821C"/>
<path d="M388.628 150.523C390.7 151.748 392.835 152.869 395.027 153.875C400.249 148.864 409.206 139.953 417.949 129.773C419.187 128.334 419.056 126.137 417.656 124.872C416.255 123.611 414.117 123.758 412.875 125.202C403.183 136.485 393.228 146.177 388.628 150.523Z" fill="#47821C"/>
<path d="M324.697 37.6119C325.08 40.1781 325.489 42.7566 325.901 45.2327C336.799 48.4705 357.131 53.9905 375.418 56.185C375.727 56.2249 376.032 56.2597 376.337 56.2946C395.689 58.5087 416.491 57.9375 430.921 49.4479C431.262 49.2489 431.61 48.9485 431.823 48.7071C440.326 39.078 446.256 23.7133 449.447 3.0467C449.737 1.14975 448.476 -0.621771 446.629 -0.912483C444.78 -1.19385 443.05 0.104856 442.756 1.99686C439.821 21.0191 434.57 35.0296 427.153 43.6644C413.669 51.3533 392.149 51.0961 371.942 48.2854C351.816 45.4843 332.989 40.1505 324.697 37.6119Z" fill="#47821C"/>
</svg>
