<?xml version="1.0" encoding="UTF-8"?>
<svg xmlns="http://www.w3.org/2000/svg" xmlns:xlink="http://www.w3.org/1999/xlink" viewBox="0 0 48 48" width="48px" height="48px">
<g id="surface143447606">
<path style=" stroke:none;fill-rule:nonzero;fill:rgb(95.686275%,26.274511%,21.176471%);fill-opacity:1;" d="M 16.5 5 C 12.929688 5 10 7.929688 10 11.5 L 10 41.5 C 10 42.0625 10.316406 42.578125 10.816406 42.835938 C 11.316406 43.089844 11.921875 43.046875 12.375 42.71875 L 24 34.347656 L 35.621094 42.71875 C 36.078125 43.046875 36.683594 43.089844 37.183594 42.835938 C 37.683594 42.578125 38 42.0625 38 41.5 L 38 11.5 C 38 7.929688 35.070312 5 31.5 5 Z M 16.5 8 L 31.5 8 C 33.449219 8 35 9.550781 35 11.5 L 35 38.574219 L 24.878906 31.28125 C 24.351562 30.90625 23.648438 30.90625 23.125 31.28125 L 13 38.574219 L 13 11.5 C 13 9.550781 14.550781 8 16.5 8 Z M 16.5 8 "/>
</g>
</svg>
